<?xml version="1.0" encoding="UTF-8"?>
<svg id="uuid-a956e375-6b1b-4b72-9e9f-f20c6ffc35e7" data-name="Livello 1" xmlns="http://www.w3.org/2000/svg" viewBox="0 0 812.24 438.86">
  <defs>
    <style>
      .uuid-1ec7a9bd-df6e-4b79-9073-aaa0ef6f643b {
        fill: #1d2125;
      }
    </style>
  </defs>
  <path class="uuid-1ec7a9bd-df6e-4b79-9073-aaa0ef6f643b" d="M406.52,7.65c-74.23,0-142.85,20.36-202.25,48.46l68.39,68.39h0s54.22,54.22,54.22,54.22c17.69,17.69,23.48,44.45,13.6,67.43-.33.76-.67,1.52-1.03,2.27l-30.16,63.49c-1.56,3.27,1.86,6.69,5.13,5.13l63.49-30.16c.75-.36,1.51-.7,2.27-1.03,22.98-9.88,49.74-4.1,67.43,13.6l54.21,54.21c-27.87,19.88-62.19,31.29-99.23,30.43-85.91-2-156.36-70.88-160.22-156.73-.47-10.34.03-20.48,1.41-30.34,1.88-13.5-2.74-27.08-12.38-36.72l-52.91-52.91c-14.65-14.65-37.61-17.01-54.89-5.58-47.07,31.14-84.11,63.68-107.93,86.68-17.77,17.15-17.67,45.62.1,62.77,61.19,59.07,209.27,180.74,390.75,180.74,74.23,0,142.85-20.36,202.25-48.46l-38.45-38.45h0s-84.17-84.17-84.17-84.17c-17.69-17.69-23.48-44.45-13.6-67.43.33-.76.67-1.52,1.03-2.27l30.16-63.49c1.56-3.27-1.86-6.69-5.13-5.13l-63.49,30.16c-.75.36-1.51.7-2.27,1.03-22.98,9.88-49.74,4.1-67.43-13.59l-54.21-54.21c27.87-19.88,62.19-31.29,99.23-30.43,85.91,2.01,156.36,70.89,160.22,156.73.47,10.34-.03,20.48-1.41,30.34-1.88,13.5,2.74,27.08,12.38,36.72l52.91,52.91c14.65,14.65,37.61,17.01,54.89,5.58,47.07-31.14,84.11-63.68,107.93-86.68,17.77-17.15,17.67-45.62-.1-62.77C736.08,129.31,588.01,7.65,406.52,7.65Z"/>
</svg>