<svg version="1.2" xmlns="http://www.w3.org/2000/svg" viewBox="0 0 37 45" width="100" height="122">
	<title>paypal-mark-color</title>
	<style>
		.s0 { fill: #001c64 } 
		.s1 { fill: #0070e0 } 
		.s2 { fill: #003087 } 
	</style>
	<path class="s0" d="m31 10.8c0.1-5.5-4.5-9.8-10.8-9.8h-13.1q-0.2 0-0.4 0.1-0.2 0-0.4 0.2-0.2 0.1-0.3 0.3-0.1 0.2-0.1 0.5l-5.3 32.7q0 0.2 0 0.4 0.1 0.2 0.3 0.4 0.1 0.2 0.3 0.3 0.2 0.1 0.4 0.1h7.8l-1.2 7.5q-0.1 0.3 0 0.5 0.1 0.2 0.2 0.4 0.2 0.1 0.4 0.2 0.2 0.1 0.4 0.1h6.3q0.5 0 0.8-0.3c0.2-0.2 0.3-0.4 0.3-0.7l1.9-10.9c0-0.3 0.2-0.7 0.4-0.9 0.2-0.2 0.4-0.3 0.7-0.3h3.9c6.2 0 11.4-4.4 12.4-10.5 0.7-4.4-1.2-8.3-4.9-10.3z"/>
	<path class="s1" d="m11.1 23.9l-2 12.2-1.2 7.7q0 0.2 0 0.4 0.1 0.2 0.3 0.4 0.1 0.2 0.3 0.3 0.2 0.1 0.4 0.1h6.7q0.2 0 0.5-0.1 0.2-0.1 0.3-0.2 0.2-0.2 0.3-0.4 0.1-0.2 0.2-0.4l1.7-11.1q0.1-0.3 0.2-0.5 0.1-0.2 0.3-0.3 0.1-0.2 0.4-0.2 0.2-0.1 0.4-0.1h3.9c6.2 0 11.5-4.5 12.4-10.6 0.7-4.4-1.5-8.3-5.2-10.3q0 0.7-0.1 1.4c-1 6.1-6.3 10.6-12.4 10.6h-6.2q-0.2 0-0.4 0.1-0.2 0.1-0.4 0.2-0.2 0.2-0.3 0.4-0.1 0.2-0.1 0.4z"/>
	<path class="s2" d="m9.1 36.1h-7.7q-0.3 0-0.5-0.1-0.2-0.1-0.3-0.2-0.2-0.2-0.2-0.4-0.1-0.3-0.1-0.5l5.3-33.2q0-0.2 0.1-0.4 0.1-0.2 0.3-0.3 0.2-0.2 0.4-0.3 0.2 0 0.4 0h13.4c6.3 0 10.9 4.6 10.8 10.1-1.6-0.8-3.4-1.3-5.5-1.3h-11.1q-0.2 0-0.4 0.1-0.2 0.1-0.4 0.2-0.2 0.2-0.3 0.4-0.1 0.2-0.1 0.4l-2.1 13.3c0 0-2 12.2-2 12.2z"/>
</svg>