<?xml version="1.0" encoding="UTF-8"?>
<svg id="SVGDoc" width="100%" height="100%" xmlns="http://www.w3.org/2000/svg" version="1.1" xmlns:xlink="http://www.w3.org/1999/xlink" xmlns:avocode="https://avocode.com/" viewBox="0 0 22 19"><defs><clipPath id="clip-66B1D95B-A3AC-4DD0-9991-0E513E3EA597+78E08BAD-C200-4845-9C2D-FA84F1B8D71A"><path d="M0,0v0h21.39386v0v19v0h-21.39386v0z" ></path></clipPath></defs><desc>Generated with Avocode.</desc><g><g><title>vimeo_icon_dark</title><g><title>Clip 2</title></g><g clip-path="url(#clip-66B1D95B-A3AC-4DD0-9991-0E513E3EA597+78E08BAD-C200-4845-9C2D-FA84F1B8D71A)"><title>Fill 1</title><path d="M21.38348,4.39551c-0.09521,2.13818 -1.54974,5.06592 -4.38348,8.78223c-2.88831,3.88184 -5.34924,5.82227 -7.36243,5.82227c-1.24664,0 -2.30243,-1.18164 -3.16418,-3.5459c-0.57593,-2.16699 -1.15118,-4.33398 -1.72693,-6.4541c-0.64032,-2.40967 -1.32684,-3.59277 -2.06085,-3.59277c-0.16003,0 -0.68561,0.3457 -1.68561,1.03467l-1,-1.33154c1.05579,-0.95264 2.09747,-1.90479 3.12225,-2.8584c1.40814,-1.25195 2.46521,-1.90674 3.16974,-1.97314c1.70801,-0.16406 2.70801,1.00439 3.07452,3.50586c0.41565,2.69873 0.70319,4.37744 0.86493,5.03418c0.47986,2.23926 1.00787,3.35742 1.5849,3.35742c0.44775,0 1.12036,-0.72607 2.01721,-2.17627c0.896,-1.45459 1.37585,-2.56006 1.44067,-3.31934c0.1275,-1.25342 -0.3526,-1.88184 -1.44067,-1.88184c-0.51215,0 -1.04016,0.12109 -1.58337,0.36035c1.05133,-3.53613 3.06018,-5.25342 6.02539,-5.15918c2.19824,0.07031 3.23456,1.53418 3.10791,4.39551" fill=""></path></g></g></g></svg>